<svg width="29" height="24" viewBox="0 0 29 24" fill="none" xmlns="http://www.w3.org/2000/svg">
<path d="M1.0484 12C1.0484 16.9555 1.70653 19.5019 3.41297 20.9414C4.27894 21.6718 5.50562 22.1966 7.29344 22.5318C9.08433 22.8675 11.3644 23 14.2742 23C17.184 23 19.4641 22.8675 21.255 22.5318C23.0428 22.1966 24.2695 21.6718 25.1354 20.9414C26.8419 19.5019 27.5 16.9555 27.5 12C27.5 7.04452 26.8419 4.49807 25.1354 3.05862C24.2695 2.32815 23.0428 1.80338 21.255 1.46822C19.4641 1.13248 17.184 1 14.2742 1C11.3644 1 9.08433 1.13248 7.29344 1.46822C5.50562 1.80338 4.27894 2.32815 3.41297 3.05862C1.70653 4.49807 1.0484 7.04452 1.0484 12Z" stroke="#F9F9F9" stroke-width="2" stroke-linecap="round" stroke-linejoin="round"/>
<path d="M17.8892 14.2391L20.3316 8.64633C20.8097 7.55144 19.5475 6.48674 18.2496 6.89007L11.6195 8.95031C11.1739 9.08878 10.8226 9.38508 10.6585 9.76098L8.21607 15.3537C7.73792 16.4486 9.00011 17.5133 10.2981 17.11L16.9282 15.0497C17.3738 14.9113 17.7251 14.615 17.8892 14.2391Z" stroke="#F9F9F9" stroke-width="2" stroke-linecap="round" stroke-linejoin="round"/>
</svg>
