<svg width="29" height="24" viewBox="0 0 29 24" fill="none" xmlns="http://www.w3.org/2000/svg">
<path d="M18.0161 22.8954C15.4975 23.0358 13.0219 23.0348 10.5323 22.8927V22.8841V22.8697V22.8551V22.8404V22.8257V22.8109V22.7959V22.7809V22.7659V22.7507V22.7355V22.7201V22.7047V22.6892V22.6737V22.658V22.6423V22.6265V22.6106V22.5947V22.5786V22.5625V22.5463V22.5301V22.5137V22.4973V22.4809V22.4643V22.4477V22.431V22.4142V22.3974V22.3805V22.3635V22.3464V22.3293V22.3121V22.2949V22.2776V22.2602V22.2428V22.2252V22.2077V22.19V22.1723V22.1546V22.1367V22.1189V22.1009V22.0829V22.0648V22.0467V22.0285V22.0103V21.992V21.9736V21.9552V21.9367V21.9182V21.8996V21.881V21.8623V21.8435V21.8247V21.8059V21.787V21.768V21.749V21.73V21.7109V21.6917V21.6725V21.6533V21.634V21.6147V21.5953V21.5759V21.5564V21.5369V21.5173V21.4977V21.4781V21.4584V21.4386V21.4189V21.399V21.3792V21.3593V21.3394V21.3194V21.2994V21.2794V21.2593V21.2392V21.219V21.1988V21.1786V21.1584V21.1381V21.1178V21.0974V21.077V21.0566V21.0362V21.0157V20.9952V20.9747V20.9541V20.9335V20.9129V20.8923V20.8716V20.8509V20.8302V20.8094V20.7887V20.7679V20.7471V20.7262V20.7054V20.6845V20.6636V20.6427V20.6218V20.6008V20.5798V20.5589V20.5379V20.5168V20.4958V20.4747V20.4537V20.4326V20.4115V20.3904V20.3693V20.3481V20.327V20.3058V20.2847V20.2635V20.2423V20.2211V20.1999V20.1787V20.1575V20.1362V20.115V20.0938V20.0725V20.0513V20.0301V20.0088V19.9876V19.9663V19.945V19.9238V19.9025V19.8813V19.86V19.8388V19.8175V19.7962V19.775V19.7538V19.7325V19.7113V19.69V19.6688V19.6476V19.6264V19.6052V19.584V19.5628V19.5416V19.5205V19.4993V19.4781V19.457V19.4359V19.4148V19.3937V19.3726V19.3515V19.3305V19.3094V19.2884V19.2674V19.2464V19.2254V19.2044V19.1835V19.1626V19.1417V19.1208V19.0999V19.0791V19.0583V19.0375V19.0167V18.996V18.9753V18.9546V18.9339V18.9132V18.8926V18.872V18.8514V18.8309V18.8104V18.7899V18.7695V18.749V18.7287V18.7083V18.688V18.6677V18.6474V18.6272V18.607V18.5868V18.5667V18.5466V18.5266V18.5065V18.4866V18.4666V18.4467V18.4268V18.407V18.3872V18.3675V18.3478V18.3281V18.3085V18.2889V18.2694V18.2499V18.2305V18.2111V18.1917V18.1724V18.1532V18.134V18.1148V18.0957V18.0766V18.0576V18.0386V18.0197V18.0009V17.9821V17.9633V17.9446V17.9259V17.9073V17.8888V17.8703V17.8519V17.8335V17.8152V17.7969V17.7787V17.7606V17.7425V17.7245V17.7065V17.6886V17.6707V17.653V17.6352V17.6176V17.6V17.5825V17.565V17.5476V17.5303V17.513V17.4958V17.4786V17.4616V17.4446V17.4277V17.4108V17.394V17.3773V17.3606V17.3441V17.3276V17.3111V17.2948V17.2785V17.2623V17.2462V17.2301V17.2141V17.1982V17.1824V17.1667V17.151V17.1354V17.1199V17.1045V17.0891V17.0738V17.0587V17.0436V17.0285V17.0136V16.9987V16.984V16.9693V16.9547V16.9402V16.9258V16.9114V16.8972V16.883V16.8689V16.855V16.8411V16.8273V16.8136V16.7999V16.7864V16.773V16.7596V16.7464V16.7333V16.7202V16.7072V16.6944V16.6816V16.6689V16.6564V16.6439V16.6315V16.6193V16.6071V16.595V16.583V16.5712V16.5594V16.5477V16.5362V16.5247V16.5134V16.5021V16.491V16.48V16.469V16.4582V16.4475V16.4369V16.4264V16.416V16.4057V16.3956V16.3855V16.3756V16.3658V16.356V16.3464V16.337V16.3276V16.3183V16.3092V16.3002V16.2912V16.2825V16.2738V16.2652V16.2568V16.2485V16.2403V16.2322V16.2242V16.2164V16.2087V16.2011V16.1937V16.1863V16.1791V16.172V16.1651V16.1582V16.1515V16.1449V16.1385V16.1321V16.1259V16.1199V16.1139C10.5323 16.0021 10.6147 15.7567 10.9188 15.4996C11.2107 15.2528 11.581 15.1095 11.9032 15.1095H11.9102H11.9172H11.9242H11.9312H11.9383H11.9454H11.9525H11.9597H11.9668H11.974H11.9813H11.9885H11.9958H12.0031H12.0104H12.0178H12.0252H12.0326H12.04H12.0474H12.0549H12.0624H12.07H12.0775H12.0851H12.0927H12.1003H12.108H12.1157H12.1234H12.1311H12.1388H12.1466H12.1544H12.1622H12.1701H12.1779H12.1858H12.1937H12.2017H12.2096H12.2176H12.2256H12.2336H12.2417H12.2497H12.2578H12.266H12.2741H12.2823H12.2904H12.2986H12.3069H12.3151H12.3234H12.3317H12.34H12.3483H12.3567H12.365H12.3734H12.3818H12.3903H12.3987H12.4072H12.4157H12.4242H12.4328H12.4413H12.4499H12.4585H12.4671H12.4757H12.4844H12.4931H12.5018H12.5105H12.5192H12.5279H12.5367H12.5455H12.5543H12.5631H12.572H12.5808H12.5897H12.5986H12.6075H12.6165H12.6254H12.6344H12.6434H12.6524H12.6614H12.6704H12.6795H12.6885H12.6976H12.7067H12.7159H12.725H12.7341H12.7433H12.7525H12.7617H12.7709H12.7802H12.7894H12.7987H12.808H12.8173H12.8266H12.8359H12.8452H12.8546H12.864H12.8734H12.8828H12.8922H12.9016H12.9111H12.9205H12.93H12.9395H12.949H12.9585H12.968H12.9776H12.9871H12.9967H13.0063H13.0159H13.0255H13.0351H13.0448H13.0544H13.0641H13.0737H13.0834H13.0931H13.1028H13.1126H13.1223H13.1321H13.1418H13.1516H13.1614H13.1712H13.181H13.1908H13.2006H13.2105H13.2203H13.2302H13.2401H13.2499H13.2598H13.2697H13.2797H13.2896H13.2995H13.3095H13.3194H13.3294H13.3394H13.3493H13.3593H13.3693H13.3794H13.3894H13.3994H13.4094H13.4195H13.4296H13.4396H13.4497H13.4598H13.4699H13.48H13.4901H13.5002H13.5103H13.5205H13.5306H13.5408H13.5509H13.5611H13.5712H13.5814H13.5916H13.6018H13.612H13.6222H13.6324H13.6426H13.6529H13.6631H13.6733H13.6836H13.6938H13.7041H13.7143H13.7246H13.7349H13.7452H13.7554H13.7657H13.776H13.7863H13.7966H13.8069H13.8173H13.8276H13.8379H13.8482H13.8586H13.8689H13.8792H13.8896H13.8999H13.9103H13.9206H13.931H13.9414H13.9517H13.9621H13.9725H13.9828H13.9932H14.0036H14.014H14.0244H14.0348H14.0452H14.0556H14.066H14.0764H14.0868H14.0972H14.1076H14.118H14.1284H14.1388H14.1492H14.1596H14.17H14.1804H14.1909H14.2013H14.2117H14.2221H14.2325H14.2429H14.2534H14.2638H14.2742H14.2846H14.295H14.3055H14.3159H14.3263H14.3367H14.3471H14.3575H14.368H14.3784H14.3888H14.3992H14.4096H14.42H14.4304H14.4408H14.4512H14.4616H14.472H14.4824H14.4928H14.5032H14.5136H14.524H14.5344H14.5448H14.5552H14.5656H14.5759H14.5863H14.5967H14.607H14.6174H14.6278H14.6381H14.6485H14.6588H14.6692H14.6795H14.6898H14.7002H14.7105H14.7208H14.7311H14.7415H14.7518H14.7621H14.7724H14.7827H14.793H14.8032H14.8135H14.8238H14.8341H14.8443H14.8546H14.8648H14.8751H14.8853H14.8955H14.9058H14.916H14.9262H14.9364H14.9466H14.9568H14.967H14.9772H14.9873H14.9975H15.0076H15.0178H15.0279H15.0381H15.0482H15.0583H15.0684H15.0785H15.0886H15.0987H15.1088H15.1188H15.1289H15.1389H15.149H15.159H15.169H15.1791H15.1891H15.1991H15.209H15.219H15.229H15.2389H15.2489H15.2588H15.2687H15.2787H15.2886H15.2985H15.3083H15.3182H15.3281H15.3379H15.3478H15.3576H15.3674H15.3772H15.387H15.3968H15.4066H15.4163H15.4261H15.4358H15.4456H15.4553H15.465H15.4747H15.4843H15.494H15.5036H15.5133H15.5229H15.5325H15.5421H15.5517H15.5613H15.5708H15.5804H15.5899H15.5994H15.6089H15.6184H15.6279H15.6373H15.6468H15.6562H15.6656H15.675H15.6844H15.6938H15.7032H15.7125H15.7218H15.7311H15.7404H15.7497H15.759H15.7682H15.7775H15.7867H15.7959H15.8051H15.8143H15.8234H15.8325H15.8417H15.8508H15.8599H15.8689H15.878H15.887H15.896H15.905H15.914H15.923H15.9319H15.9409H15.9498H15.9587H15.9676H15.9764H15.9853H15.9941H16.0029H16.0117H16.0205H16.0292H16.0379H16.0466H16.0553H16.064H16.0727H16.0813H16.0899H16.0985H16.1071H16.1156H16.1242H16.1327H16.1412H16.1497H16.1581H16.1666H16.175H16.1834H16.1917H16.2001H16.2084H16.2167H16.225H16.2333H16.2415H16.2498H16.258H16.2661H16.2743H16.2824H16.2906H16.2987H16.3067H16.3148H16.3228H16.3308H16.3388H16.3467H16.3547H16.3626H16.3705H16.3783H16.3862H16.394H16.4018H16.4096H16.4173H16.425H16.4327H16.4404H16.4481H16.4557H16.4633H16.4709H16.4784H16.486H16.4935H16.501H16.5084H16.5158H16.5232H16.5306H16.538H16.5453H16.5526H16.5599H16.5671H16.5744H16.5816H16.5887H16.5959H16.603H16.6101H16.6172H16.6242H16.6312H16.6382H16.6452C16.9674 15.1095 17.3377 15.2528 17.6296 15.4996C17.9337 15.7567 18.0161 16.0021 18.0161 16.1139V20.3502V20.3713V20.3925V20.4136V20.4347V20.4558V20.4769V20.498V20.519V20.54V20.5611V20.5821V20.603V20.624V20.6449V20.6659V20.6868V20.7077V20.7285V20.7494V20.7702V20.8118V20.8325V20.8533V20.874V20.8946V20.9153V20.9359V20.9565V20.9771V20.9976V21.0182V21.0386V21.0591V21.0795V21.0999V21.1203V21.1406V21.1609V21.1812V21.2014V21.2216V21.2418V21.2619V21.282V21.302V21.322V21.342V21.362V21.3819V21.4017V21.4216V21.5004V21.5201V21.5396V21.5592V21.5786V21.5981V21.6175V21.6368V21.6561V21.6754V21.6946V21.7138V21.7329V21.7519V21.7709V21.7899V21.8088V21.8277V21.8465V21.8652V21.8839V21.9026V21.9212V21.9397V21.9582V22.2459V22.7694V22.8954ZM8.53227 22.7355V22.7485C8.063 22.7077 7.59262 22.6619 7.12075 22.6112C5.3507 22.4207 4.18601 22.0508 3.40426 21.5157C2.66067 21.0068 2.17549 20.2878 1.88789 19.1792C0.738557 14.7487 1.0219 10.8038 1.27752 9.27081C1.30539 9.23301 1.35115 9.17692 1.42117 9.10144C1.59894 8.90983 1.86962 8.66074 2.23194 8.35952C2.95254 7.76044 3.95271 7.02323 5.0917 6.22853C7.36472 4.6426 10.1193 2.87705 12.1262 1.61662C13.4299 0.797806 15.2317 0.793937 16.54 1.60822C18.5636 2.8678 21.3427 4.63552 23.6217 6.22337C24.7641 7.01928 25.761 7.75629 26.4701 8.35377C26.8271 8.65456 27.0873 8.90016 27.2524 9.08576C27.3003 9.1396 27.3341 9.18163 27.3571 9.2124C27.4871 10.8613 27.7869 14.8001 26.7593 19.203C26.5023 20.3041 26.0232 21.0173 25.2767 21.5232C24.4879 22.0577 23.3076 22.4241 21.5344 22.6109C21.0257 22.6645 20.5197 22.7125 20.0161 22.7551V22.2459V21.9582V21.9397V21.9212V21.9026V21.8839V21.8652V21.8465V21.8277V21.8088V21.7899V21.7709V21.7519V21.7329V21.7138V21.6946V21.6754V21.6561V21.6368V21.6175V21.5981V21.5786V21.5592V21.5396V21.5201V21.5004V21.4216V21.4017V21.3819V21.362V21.342V21.322V21.302V21.282V21.2619V21.2418V21.2216V21.2014V21.1812V21.1609V21.1406V21.1203V21.0999V21.0795V21.0591V21.0386V21.0182V20.9976V20.9771V20.9565V20.9359V20.9153V20.8946V20.874V20.8533V20.8325V20.8118V20.7702V20.7494V20.7285V20.7077V20.6868V20.6659V20.6449V20.624V20.603V20.5821V20.5611V20.54V20.519V20.498V20.4769V20.4558V20.4347V20.4136V20.3925V20.3713V20.3502V16.1139C20.0161 15.2236 19.5058 14.4668 18.9208 13.9722C18.3236 13.4674 17.5084 13.1095 16.6452 13.1095H16.6382H16.6312H16.6242H16.6172H16.6101H16.603H16.5959H16.5887H16.5816H16.5744H16.5671H16.5599H16.5526H16.5453H16.538H16.5306H16.5232H16.5158H16.5084H16.501H16.4935H16.486H16.4784H16.4709H16.4633H16.4557H16.4481H16.4404H16.4327H16.425H16.4173H16.4096H16.4018H16.394H16.3862H16.3783H16.3705H16.3626H16.3547H16.3467H16.3388H16.3308H16.3228H16.3148H16.3067H16.2987H16.2906H16.2824H16.2743H16.2661H16.258H16.2498H16.2415H16.2333H16.225H16.2167H16.2084H16.2001H16.1917H16.1834H16.175H16.1666H16.1581H16.1497H16.1412H16.1327H16.1242H16.1156H16.1071H16.0985H16.0899H16.0813H16.0727H16.064H16.0553H16.0466H16.0379H16.0292H16.0205H16.0117H16.0029H15.9941H15.9853H15.9764H15.9676H15.9587H15.9498H15.9409H15.9319H15.923H15.914H15.905H15.896H15.887H15.878H15.8689H15.8599H15.8508H15.8417H15.8325H15.8234H15.8143H15.8051H15.7959H15.7867H15.7775H15.7682H15.759H15.7497H15.7404H15.7311H15.7218H15.7125H15.7032H15.6938H15.6844H15.675H15.6656H15.6562H15.6468H15.6373H15.6279H15.6184H15.6089H15.5994H15.5899H15.5804H15.5708H15.5613H15.5517H15.5421H15.5325H15.5229H15.5133H15.5036H15.494H15.4843H15.4747H15.465H15.4553H15.4456H15.4358H15.4261H15.4163H15.4066H15.3968H15.387H15.3772H15.3674H15.3576H15.3478H15.3379H15.3281H15.3182H15.3083H15.2985H15.2886H15.2787H15.2687H15.2588H15.2489H15.2389H15.229H15.219H15.209H15.1991H15.1891H15.1791H15.169H15.159H15.149H15.1389H15.1289H15.1188H15.1088H15.0987H15.0886H15.0785H15.0684H15.0583H15.0482H15.0381H15.0279H15.0178H15.0076H14.9975H14.9873H14.9772H14.967H14.9568H14.9466H14.9364H14.9262H14.916H14.9058H14.8955H14.8853H14.8751H14.8648H14.8546H14.8443H14.8341H14.8238H14.8135H14.8032H14.793H14.7827H14.7724H14.7621H14.7518H14.7415H14.7311H14.7208H14.7105H14.7002H14.6898H14.6795H14.6692H14.6588H14.6485H14.6381H14.6278H14.6174H14.607H14.5967H14.5863H14.5759H14.5656H14.5552H14.5448H14.5344H14.524H14.5136H14.5032H14.4928H14.4824H14.472H14.4616H14.4512H14.4408H14.4304H14.42H14.4096H14.3992H14.3888H14.3784H14.368H14.3575H14.3471H14.3367H14.3263H14.3159H14.3055H14.295H14.2846H14.2742H14.2638H14.2534H14.2429H14.2325H14.2221H14.2117H14.2013H14.1909H14.1804H14.17H14.1596H14.1492H14.1388H14.1284H14.118H14.1076H14.0972H14.0868H14.0764H14.066H14.0556H14.0452H14.0348H14.0244H14.014H14.0036H13.9932H13.9828H13.9725H13.9621H13.9517H13.9414H13.931H13.9206H13.9103H13.8999H13.8896H13.8792H13.8689H13.8586H13.8482H13.8379H13.8276H13.8173H13.8069H13.7966H13.7863H13.776H13.7657H13.7554H13.7452H13.7349H13.7246H13.7143H13.7041H13.6938H13.6836H13.6733H13.6631H13.6529H13.6426H13.6324H13.6222H13.612H13.6018H13.5916H13.5814H13.5712H13.5611H13.5509H13.5408H13.5306H13.5205H13.5103H13.5002H13.4901H13.48H13.4699H13.4598H13.4497H13.4396H13.4296H13.4195H13.4094H13.3994H13.3894H13.3794H13.3693H13.3593H13.3493H13.3394H13.3294H13.3194H13.3095H13.2995H13.2896H13.2797H13.2697H13.2598H13.2499H13.2401H13.2302H13.2203H13.2105H13.2006H13.1908H13.181H13.1712H13.1614H13.1516H13.1418H13.1321H13.1223H13.1126H13.1028H13.0931H13.0834H13.0737H13.0641H13.0544H13.0448H13.0351H13.0255H13.0159H13.0063H12.9967H12.9871H12.9776H12.968H12.9585H12.949H12.9395H12.93H12.9205H12.9111H12.9016H12.8922H12.8828H12.8734H12.864H12.8546H12.8452H12.8359H12.8266H12.8173H12.808H12.7987H12.7894H12.7802H12.7709H12.7617H12.7525H12.7433H12.7341H12.725H12.7159H12.7067H12.6976H12.6885H12.6795H12.6704H12.6614H12.6524H12.6434H12.6344H12.6254H12.6165H12.6075H12.5986H12.5897H12.5808H12.572H12.5631H12.5543H12.5455H12.5367H12.5279H12.5192H12.5105H12.5018H12.4931H12.4844H12.4757H12.4671H12.4585H12.4499H12.4413H12.4328H12.4242H12.4157H12.4072H12.3987H12.3903H12.3818H12.3734H12.365H12.3567H12.3483H12.34H12.3317H12.3234H12.3151H12.3069H12.2986H12.2904H12.2823H12.2741H12.266H12.2578H12.2497H12.2417H12.2336H12.2256H12.2176H12.2096H12.2017H12.1937H12.1858H12.1779H12.1701H12.1622H12.1544H12.1466H12.1388H12.1311H12.1234H12.1157H12.108H12.1003H12.0927H12.0851H12.0775H12.07H12.0624H12.0549H12.0474H12.04H12.0326H12.0252H12.0178H12.0104H12.0031H11.9958H11.9885H11.9813H11.974H11.9668H11.9597H11.9525H11.9454H11.9383H11.9312H11.9242H11.9172H11.9102H11.9032C11.04 13.1095 10.2248 13.4674 9.62759 13.9722C9.04258 14.4668 8.53227 15.2236 8.53227 16.1139V16.1199V16.1259V16.1321V16.1385V16.1449V16.1515V16.1582V16.1651V16.172V16.1791V16.1863V16.1937V16.2011V16.2087V16.2164V16.2242V16.2322V16.2403V16.2485V16.2568V16.2652V16.2738V16.2825V16.2912V16.3002V16.3092V16.3183V16.3276V16.337V16.3464V16.356V16.3658V16.3756V16.3855V16.3956V16.4057V16.416V16.4264V16.4369V16.4475V16.4582V16.469V16.48V16.491V16.5021V16.5134V16.5247V16.5362V16.5477V16.5594V16.5712V16.583V16.595V16.6071V16.6193V16.6315V16.6439V16.6564V16.6689V16.6816V16.6944V16.7072V16.7202V16.7333V16.7464V16.7596V16.773V16.7864V16.7999V16.8136V16.8273V16.8411V16.855V16.8689V16.883V16.8972V16.9114V16.9258V16.9402V16.9547V16.9693V16.984V16.9987V17.0136V17.0285V17.0436V17.0587V17.0738V17.0891V17.1045V17.1199V17.1354V17.151V17.1667V17.1824V17.1982V17.2141V17.2301V17.2462V17.2623V17.2785V17.2948V17.3111V17.3276V17.3441V17.3606V17.3773V17.394V17.4108V17.4277V17.4446V17.4616V17.4786V17.4958V17.513V17.5303V17.5476V17.565V17.5825V17.6V17.6176V17.6352V17.653V17.6707V17.6886V17.7065V17.7245V17.7425V17.7606V17.7787V17.7969V17.8152V17.8335V17.8519V17.8703V17.8888V17.9073V17.9259V17.9446V17.9633V17.9821V18.0009V18.0197V18.0386V18.0576V18.0766V18.0957V18.1148V18.134V18.1532V18.1724V18.1917V18.2111V18.2305V18.2499V18.2694V18.2889V18.3085V18.3281V18.3478V18.3675V18.3872V18.407V18.4268V18.4467V18.4666V18.4866V18.5065V18.5266V18.5466V18.5667V18.5868V18.607V18.6272V18.6474V18.6677V18.688V18.7083V18.7287V18.749V18.7695V18.7899V18.8104V18.8309V18.8514V18.872V18.8926V18.9132V18.9339V18.9546V18.9753V18.996V19.0167V19.0375V19.0583V19.0791V19.0999V19.1208V19.1417V19.1626V19.1835V19.2044V19.2254V19.2464V19.2674V19.2884V19.3094V19.3305V19.3515V19.3726V19.3937V19.4148V19.4359V19.457V19.4781V19.4993V19.5205V19.5416V19.5628V19.584V19.6052V19.6264V19.6476V19.6688V19.69V19.7113V19.7325V19.7538V19.775V19.7962V19.8175V19.8388V19.86V19.8813V19.9025V19.9238V19.945V19.9663V19.9876V20.0088V20.0301V20.0513V20.0725V20.0938V20.115V20.1362V20.1575V20.1787V20.1999V20.2211V20.2423V20.2635V20.2847V20.3058V20.327V20.3481V20.3693V20.3904V20.4115V20.4326V20.4537V20.4747V20.4958V20.5168V20.5379V20.5589V20.5798V20.6008V20.6218V20.6427V20.6636V20.6845V20.7054V20.7262V20.7471V20.7679V20.7887V20.8094V20.8302V20.8509V20.8716V20.8923V20.9129V20.9335V20.9541V20.9747V20.9952V21.0157V21.0362V21.0566V21.077V21.0974V21.1178V21.1381V21.1584V21.1786V21.1988V21.219V21.2392V21.2593V21.2794V21.2994V21.3194V21.3394V21.3593V21.3792V21.399V21.4189V21.4386V21.4584V21.4781V21.4977V21.5173V21.5369V21.5564V21.5759V21.5953V21.6147V21.634V21.6533V21.6725V21.6917V21.7109V21.73V21.749V21.768V21.787V21.8059V21.8247V21.8435V21.8623V21.881V21.8996V21.9182V21.9367V21.9552V21.9736V21.992V22.0103V22.0285V22.0467V22.0648V22.0829V22.1009V22.1189V22.1367V22.1546V22.1723V22.19V22.2077V22.2252V22.2428V22.2602V22.2776V22.2949V22.3121V22.3293V22.3464V22.3635V22.3805V22.3974V22.4142V22.431V22.4477V22.4643V22.4809V22.4973V22.5137V22.5301V22.5463V22.5625V22.5786V22.5947V22.6106V22.6265V22.6423V22.658V22.6737V22.6892V22.7047V22.7201V22.7355ZM1.24716 9.31637C1.24701 9.31641 1.2483 9.3139 1.25147 9.30874C1.2489 9.31376 1.24732 9.31634 1.24716 9.31637ZM27.3974 9.27294C27.3972 9.27291 27.3955 9.27003 27.3928 9.26443C27.3962 9.27017 27.3975 9.27296 27.3974 9.27294Z" stroke="#F9F9F9" stroke-width="2" stroke-linecap="round" stroke-linejoin="round"/>
</svg>
