<svg width="70" height="47" viewBox="0 0 70 47" fill="none" xmlns="http://www.w3.org/2000/svg">
<path d="M11.1263 26H5.04424V5.5918H0.403618V0.300781H15.7317V5.5918H11.1263V26ZM18.4739 26V0.300781H24.5911V26H18.4739ZM48.2161 26H41.0794L34.3821 10.0215H34.2415C34.3118 10.959 34.3646 11.832 34.3997 12.6406C34.4466 13.4375 34.4759 14.1641 34.4876 14.8203C34.511 15.4648 34.5228 16.0332 34.5228 16.5254V26H28.845V0.300781H35.929L42.5911 15.8398H42.7317C42.6849 14.9727 42.6439 14.1641 42.6087 13.4141C42.5735 12.6641 42.5442 11.9727 42.5208 11.3398C42.4974 10.707 42.4856 10.1328 42.4856 9.61719V0.300781H48.2161V26ZM59.8528 9.65234L62.9817 0.300781H69.2747L62.8763 16.1387V26H56.7591V16.3496L50.3431 0.300781H56.7064L59.8528 9.65234ZM9.35479 46L6.89385 36.4004H6.81573C6.84828 36.8301 6.87432 37.2467 6.89385 37.6504C6.91989 38.0475 6.93943 38.4251 6.95245 38.7832C6.96547 39.1413 6.97198 39.4798 6.97198 39.7988V46H3.79815V31.7227H8.45635L10.6731 40.2969H10.7317L12.9583 31.7227H17.5774V46H14.3157V39.7402C14.3157 39.3822 14.3222 39.0273 14.3353 38.6758C14.3483 38.3177 14.3646 37.9499 14.3841 37.5723C14.4036 37.1947 14.4264 36.804 14.4524 36.4004H14.3743L11.8743 46H9.35479ZM30.4095 38.8418C30.4095 40.0397 30.2923 41.0977 30.0579 42.0156C29.8301 42.9271 29.485 43.6953 29.0228 44.3203C28.567 44.9388 28.0006 45.4076 27.3235 45.7266C26.653 46.0391 25.875 46.1953 24.9896 46.1953C24.1106 46.1953 23.3327 46.0358 22.6556 45.7168C21.9785 45.3978 21.4088 44.929 20.9466 44.3105C20.4843 43.6855 20.136 42.9141 19.9017 41.9961C19.6673 41.0781 19.5501 40.0202 19.5501 38.8223C19.5501 37.2337 19.7552 35.8958 20.1653 34.8086C20.582 33.7214 21.194 32.8978 22.0013 32.3379C22.8151 31.778 23.8112 31.498 24.9896 31.498C26.1745 31.498 27.1673 31.7747 27.9681 32.3281C28.7754 32.8815 29.3841 33.7051 29.7942 34.7988C30.2044 35.8861 30.4095 37.2337 30.4095 38.8418ZM23.0853 38.8418C23.0853 39.8118 23.1569 40.6224 23.3001 41.2734C23.4433 41.9245 23.6549 42.4128 23.9349 42.7383C24.2213 43.0573 24.5729 43.2168 24.9896 43.2168C25.4192 43.2168 25.7708 43.0605 26.0442 42.748C26.3242 42.4355 26.5293 41.957 26.6595 41.3125C26.7962 40.6615 26.8646 39.8379 26.8646 38.8418C26.8646 37.3314 26.7083 36.2181 26.3958 35.502C26.0898 34.7793 25.6211 34.418 24.9896 34.418C24.5729 34.418 24.2213 34.584 23.9349 34.916C23.6549 35.2415 23.4433 35.7331 23.3001 36.3906C23.1569 37.0417 23.0853 37.8587 23.0853 38.8418ZM42.3919 31.7227L38.7493 46H34.7942L31.1907 31.7227H34.7552L36.1907 38.7637C36.2558 39.0762 36.3274 39.4603 36.4056 39.916C36.4902 40.3717 36.5651 40.8242 36.6302 41.2734C36.6953 41.7227 36.7409 42.0905 36.7669 42.377C36.806 42.0905 36.858 41.7259 36.9231 41.2832C36.9948 40.834 37.0696 40.3848 37.1478 39.9355C37.2324 39.4798 37.3073 39.0957 37.3724 38.7832L38.8274 31.7227H42.3919ZM43.5833 46V31.7227H46.9817V46H43.5833ZM56.22 46H49.345V31.7227H56.22V34.6035H52.7435V37.1816H55.9661V40.0625H52.7435V43.0801H56.22V46ZM66.0345 46H57.4505V43.6172L62.2259 34.6035H57.5481V31.7227H65.9075V34.0957L61.1517 43.0801H66.0345V46Z" fill="#F9F9F9"/>
</svg>
