<svg width="29" height="24" viewBox="0 0 29 24" fill="none" xmlns="http://www.w3.org/2000/svg">
<path d="M14.3112 1C15.5492 1 17.4996 5.78123 18.1797 7.55285C18.3295 7.94304 18.6964 8.20595 19.1142 8.21685C21.2038 8.27135 27.3145 8.52766 27.3145 9.66144C27.3145 10.7461 23.2134 13.4682 21.5163 14.5482C21.101 14.8125 20.9306 15.333 21.1057 15.793C21.811 17.6465 23.3911 22.1602 22.3494 22.8815C21.2685 23.63 16.52 20.5336 14.8542 19.4008C14.5034 19.1622 14.0449 19.1618 13.6939 19.4002C12.0265 20.5326 7.27714 23.6301 6.27297 22.8815C5.30344 22.1587 6.80189 17.6288 7.46464 15.7821C7.62826 15.3262 7.45603 14.8178 7.0473 14.5579C5.35958 13.4845 1.23389 10.7493 1.23389 9.66144C1.23389 8.52646 7.35763 8.27081 9.44083 8.21667C9.85533 8.2059 10.2198 7.94757 10.3718 7.56178C11.067 5.79736 13.071 1 14.3112 1Z" stroke="#F9F9F9" stroke-width="2" stroke-linecap="round" stroke-linejoin="round"/>
</svg>
